CDTEXTFILE "cdtext.cdt"
FILE "cdtext.bin" BINARY
  TRACK 01 AUDIO
    INDEX 01 00:00:00
  TRACK 02 AUDIO
    INDEX 01 00:08:00
  TRACK 03 AUDIO
    INDEX 01 00:16:00
